<svg xmlns="http://www.w3.org/2000/svg" width="512" height="512" viewBox="0 0 512 512"><path fill="#fff" d="M507.33 411.33c0-.002-.003-.004-.005-.005L352.003 256l155.322-155.325.006-.005c1.673-1.673 2.882-3.627 3.657-5.708 2.123-5.688.912-12.34-3.662-16.915L433.952 4.674C429.378.1 422.725-1.11 417.038 1.014c-2.08.775-4.035 1.984-5.71 3.655 0 0 0 .002-.003.004L256 160 100.678 4.675l-.005-.005C99 3 97.045 1.79 94.965 1.015c-5.69-2.124-12.34-.913-16.915 3.66L4.676 78.05c-4.574 4.573-5.784 11.225-3.66 16.913C1.79 97.043 3 99 4.67 100.67l.006.006L160 256 4.677 411.326c0 .002-.003.003-.004.005-1.67 1.674-2.88 3.628-3.657 5.708-2.124 5.688-.913 12.34 3.66 16.915l73.375 73.373c4.575 4.574 11.226 5.784 16.915 3.66 2.08-.775 4.035-1.984 5.708-3.655l.005-.004L256.002 352l155.324 155.326c.002 0 .004.003.006.004 1.674 1.672 3.627 2.88 5.707 3.657 5.687 2.123 12.34.913 16.913-3.66l73.373-73.375c4.574-4.574 5.785-11.23 3.662-16.915-.776-2.08-1.985-4.034-3.657-5.707z"/></svg>